<?xml version="1.0" encoding="utf-8"?>
<!-- Generator: Adobe Illustrator 25.2.3, SVG Export Plug-In . SVG Version: 6.00 Build 0)  -->
<svg version="1.1" id="Layer_1" xmlns="http://www.w3.org/2000/svg" xmlns:xlink="http://www.w3.org/1999/xlink" x="0px" y="0px"
	 viewBox="0 0 400 355.8" style="enable-background:new 0 0 400 355.8;" xml:space="preserve">
<style type="text/css">
	.st0{fill:#FFFFFF;}
	.st1{fill:#ECB144;}
	.st2{fill:#EF4344;}
	.st3{fill:#90C046;}
</style>
<g>
	<g>
		<path class="st0" d="M111.6,0c6,0,12.1,0,18.1,0c-0.3,0.9,0.4,0.6,0.7,0.7c6.9,1.3,13.5,3.7,19.8,6.6c10.7,5,20.5,11.6,29.8,18.9
			c6.5,5.1,12.7,10.6,18.7,16.4c1.5,1.5,1,1.5,2.7-0.1c1.3-1.2,2.7-2.5,4-3.8c9.6-8.9,19.7-17.1,30.8-24c8.4-5.2,17.1-9.7,26.6-12.5
			c2.3-0.7,4.6-1.3,6.9-1.7c0.3-0.1,0.9,0,0.5-0.7c6.2,0,12.3,0,18.5,0c-0.4,0.3-0.2,0.5,0.1,0.6c0.9,0.2,1.7,0.4,2.6,0.7
			c10.9,3.1,18.6,10,23.9,19.9c4.6,8.5,6.6,17.8,7.5,27.4c0.8,8.2,0.6,16.5-0.1,24.7c-0.9,10.1-2.5,20.1-4.8,30
			c-0.6,2.6-1.2,5.1-1.8,7.8c0.6,0.2,1,0.3,1.5,0.5c10.7,3.1,21.3,6.8,31.5,11.4c10.8,4.9,21.2,10.6,30.4,18.2
			c6.1,5.1,11.5,10.8,15.3,17.9c6.4,11.8,6.9,23.9,1.1,36.1c-3,6.3-7.4,11.7-12.4,16.5c-7.2,6.9-15.5,12.2-24.3,16.9
			c-13.1,6.9-26.9,12-41.1,16.1c-1.9,0.6-1.9,0.6-1.4,2.6c3.1,12.7,5.5,25.6,6.3,38.7c0.6,9.9,0.6,19.8-1.2,29.6
			c-1.2,7-3.3,13.7-6.7,19.9c-4.8,8.7-11.6,15.1-20.9,18.6c-1.4,0.5-2.9,1-4.4,1.3c-0.3,0.1-0.8,0.1-0.3,0.6c-6.6,0-13.3,0-19.9,0
			c0.3-0.7-0.3-0.6-0.6-0.6c-1.9-0.4-3.8-0.9-5.7-1.4c-9.7-2.8-18.6-7.3-27.1-12.6c-12.3-7.7-23.4-16.9-33.9-26.9
			c-0.7-0.7-1.4-1.4-2.1-2c-0.2,0.1-0.4,0.2-0.4,0.2c-1.6,1.5-3.3,3.1-4.9,4.6c-9.7,9-20,17.3-31.2,24.3
			c-8.1,5.1-16.6,9.4-25.8,12.1c-2.1,0.7-4.3,1.2-6.5,1.6c-0.3,0.1-0.9,0-0.5,0.7c-6.6,0-13.3,0-19.9,0c0.3-0.8-0.4-0.6-0.7-0.7
			c-4.5-1.1-8.6-2.9-12.4-5.5c-6.4-4.4-10.9-10.3-14.2-17.2c-4-8.5-5.7-17.6-6.5-27c-0.6-8.1-0.4-16.2,0.4-24.3
			c0.9-9.2,2.4-18.3,4.4-27.3c0.6-2.5,1.2-5,1.7-7.4c0.3-1.2,0.3-1.2-0.9-1.6c-0.3-0.1-0.6-0.2-0.8-0.3c-8.7-2.5-17.3-5.4-25.6-8.9
			c-11-4.5-21.5-9.9-31.1-16.9c-7.2-5.3-13.7-11.4-18.5-19c-3.8-6-6.1-12.4-6.5-19.5c-0.4-7.6,1.4-14.7,5.1-21.3
			c4-7.2,9.5-13.1,15.8-18.3c8.6-7,18.2-12.4,28.2-17c10.7-4.9,21.7-8.8,33-12c1.6-0.5,1.7-0.3,1.2-2.2c-2.9-12-5.2-24.2-6.2-36.5
			c-0.9-10.4-0.9-20.7,0.8-31c1.2-7.2,3.2-14.2,6.7-20.7c4.7-8.7,11.4-15.2,20.8-18.8c1.8-0.7,3.6-1.2,5.4-1.6
			C111.3,0.6,111.9,0.6,111.6,0z M199.8,242.3c11.7,0.1,23.2-0.4,34.7-1.1c1.1-0.1,2-0.3,2.8-1.4c13-19.3,24.6-39.5,34.9-60.4
			c0.5-1,0.5-1.8,0-2.8c-10.2-21-21.9-41.1-34.9-60.4c-0.6-0.9-1.2-1.2-2.3-1.3c-7.4-0.5-14.8-0.9-22.2-1.1
			c-15.9-0.4-31.8-0.1-47.6,1.1c-1.1,0.1-1.8,0.5-2.4,1.4c-13,19.3-24.6,39.4-34.8,60.2c-0.5,1.1-0.5,1.9,0,3
			c4.8,9.7,9.8,19.3,15.2,28.7c6.1,10.7,12.7,21.3,19.6,31.5c0.6,0.9,1.3,1.4,2.4,1.4c2,0.1,3.9,0.3,5.9,0.4
			C180.7,242,190.4,242.4,199.8,242.3z M382.7,178c0-2-0.3-4-0.9-6c-1.5-4.9-4.3-8.9-7.7-12.6c-5.3-5.7-11.5-10.1-18.1-13.9
			c-13.6-7.9-28.2-13.3-43.3-17.6c-1.1-0.3-1.1-0.3-1.5,1c-5.2,16.4-11.4,32.3-18.6,47.9c-0.4,0.9-0.3,1.5,0,2.3
			c7.1,15.6,13.4,31.5,18.6,47.8c0.4,1.4,0.5,1.4,1.8,1c10.6-3.1,21.1-6.7,31.1-11.4c8.7-4,17-8.7,24.4-14.8
			c4.5-3.7,8.4-7.8,11.3-12.9C381.5,185.5,382.6,181.9,382.7,178z M87.9,127.8c0,0-0.2,0.1-0.5,0.1c-11.6,3.3-23,7.4-33.9,12.6
			c-8.5,4.1-16.6,8.9-23.7,15.2c-3.8,3.4-7.1,7.1-9.6,11.6c-3.8,7.1-3.8,14.1,0,21.2c1.7,3.2,4,6,6.5,8.6c4.9,5,10.5,9.1,16.5,12.6
			c13.8,8.2,28.8,13.7,44.2,18.2c1.2,0.3,1.2,0.3,1.6-1.1c5.1-16.3,11.3-32.1,18.5-47.6c0.5-1,0.4-1.8-0.1-2.8
			c-7.1-15.4-13.3-31.2-18.4-47.5c-0.1-0.3-0.2-0.6-0.3-0.8C88.7,127.9,88.5,127.7,87.9,127.8z M94.1,60.1c0,6.6,0.5,13.3,1.4,19.8
			c1.1,8.6,2.8,17,4.9,25.4c0.3,1.3,0.3,1.3,1.6,1c3.5-0.7,6.9-1.5,10.4-2.1c7.7-1.5,15.5-2.8,23.3-3.8c5.4-0.7,10.8-1.4,16.2-1.8
			c1.5-0.1,2.4-0.7,3.3-1.9c8.1-11.5,16.8-22.5,26.1-33.1c1.9-2.2,3.9-4.3,5.8-6.5c0.5-0.6,0.7-1,0-1.6c-0.2-0.1-0.3-0.3-0.5-0.5
			c-7.7-7.3-15.7-14.3-24.4-20.4c-7.4-5.3-15.2-10.1-23.7-13.5c-6.4-2.6-13-4.4-20-4.1c-6.7,0.3-12.2,3.1-16.2,8.5
			c-2.6,3.4-4.2,7.2-5.4,11.3C94.7,44.5,94,52.3,94.1,60.1z M94.1,296.4c-0.1,5.8,0.4,12.2,1.8,18.6c1.2,5.2,2.9,10.2,6,14.7
			c2.8,4,6.4,6.8,11,8.2c4.9,1.5,9.8,1.3,14.8,0.3c7-1.4,13.4-4.1,19.7-7.5c9.7-5.2,18.5-11.6,27-18.7c4.4-3.7,8.6-7.5,12.7-11.4
			c1-0.9,1-0.9,0.1-1.9c-1.1-1.2-2.2-2.5-3.3-3.7c-10.2-11.5-19.7-23.5-28.6-36c-0.7-1-1.4-1.4-2.6-1.5c-5.5-0.5-11.1-1.2-16.6-1.9
			c-11.3-1.5-22.5-3.5-33.6-5.9c-1.6-0.4-1.6-0.4-2.1,1.3c-1.2,4.9-2.3,9.8-3.2,14.7C95.3,275.6,94.1,285.6,94.1,296.4z
			 M212.2,299.7c0.6,0.6,1.1,1,1.6,1.5c5.4,5.2,11,10.1,16.9,14.7c8.3,6.5,16.9,12.4,26.4,16.9c6.7,3.2,13.7,5.6,21.2,6
			c8.7,0.4,15.6-2.6,20.5-10c1.9-2.8,3.2-5.9,4.2-9.2c2.3-7.4,3-15.1,3.1-22.8c0.1-8.8-0.8-17.6-2.2-26.4
			c-1.1-6.7-2.5-13.3-4.1-19.8c-0.4-1.4-0.4-1.4-1.7-1.1c-2.3,0.5-4.5,1-6.8,1.4c-8.9,1.8-17.8,3.3-26.8,4.5
			c-5.6,0.7-11.2,1.4-16.8,1.9c-1.4,0.1-2.1,0.7-2.8,1.8c-7.5,10.5-15.3,20.6-23.7,30.4C218.2,292.9,215.3,296.2,212.2,299.7z
			 M299.2,106.6c0.1-0.3,0.2-0.4,0.3-0.5c0.2-0.6,0.3-1.1,0.4-1.7c3-12.5,5.3-25.1,5.9-38c0.4-8.9,0.1-17.7-1.9-26.3
			c-1.2-5-2.9-9.8-5.9-14c-3.5-4.9-8.1-7.9-14.1-8.8c-4.8-0.7-9.4-0.2-14.1,1c-8,2-15.3,5.6-22.3,9.8c-12.8,7.7-24.2,17.3-34.9,27.6
			c-0.2,0.2-0.3,0.4-0.4,0.6c0.5,0.5,0.9,1,1.3,1.5c4.2,4.6,8.2,9.2,12.1,14c6.8,8.2,13.3,16.7,19.5,25.4c0.5,0.7,1,1.2,1.9,1.3
			c4.4,0.3,8.7,0.9,13.1,1.4c7.7,0.9,15.4,2.1,23,3.5C288.5,104.4,293.9,105.5,299.2,106.6z M176.7,96.8c15.7-0.6,31-0.6,46.7,0
			c-7.5-9.9-15.1-19.1-23.3-28C191.8,77.7,184.2,86.9,176.7,96.8z M281.8,157.3c0.1,0,0.3,0,0.4-0.1c1.5-3.8,3.1-7.6,4.5-11.4
			c2.7-6.9,5.2-14,7.4-21.1c0.4-1.4,0.4-1.4-0.7-1.6c-10.9-2.4-21.8-4.3-32.9-5.7c-0.5-0.1-1.1-0.3-1.8,0
			C267.1,130.4,274.8,143.7,281.8,157.3z M282,198.3c-7.3,14-15,27.3-23.3,40.4c12.3-1.6,24.1-3.5,36-6.2
			C291,221,286.8,209.8,282,198.3z M141.4,238.8c-8.5-13.3-16.1-26.6-23.3-40.4c-4.8,11.4-9,22.6-12.6,34.2
			C117.3,235.2,129.1,237.2,141.4,238.8z M118.1,157.6c7.2-13.9,14.9-27.2,23.3-40.4c-1.1,0.1-1.9,0.1-2.6,0.2
			c-5.9,0.8-11.8,1.7-17.7,2.8c-4.8,0.9-9.6,1.8-14.4,2.9c-1.1,0.2-1.1,0.3-0.8,1.4c0.1,0.2,0.1,0.5,0.2,0.7
			c2.4,7.7,5.2,15.2,8.1,22.7C115.4,151,116.7,154.1,118.1,157.6z M177.1,259.1c1.3,2.9,18.9,24.2,23,27.9
			c3.5-2.8,22.3-25.6,22.9-27.8C207.7,259.8,192.4,259.8,177.1,259.1z"/>
		<path class="st0" d="M200.1,213.5c-19.7,0.1-35.6-15.7-35.7-35.5c-0.1-19.7,15.8-35.6,35.5-35.7c19.6-0.1,35.6,15.9,35.7,35.5
			C235.7,197.5,219.9,213.5,200.1,213.5z"/>
	</g>
</g>
<g>
	<g>
		<path d="M200.3,39.3c66.1-0.2,124.7,47.3,138,111.9c2,9.8-0.6,17.9-9,23.5c-1.9,1.3-1.4,2.1-0.5,3.5c11.4,18.1,9.3,38-5.7,53.5
			c-1.3,1.3-1.6,2.2-0.8,3.9c3.3,6.4,2.8,12.7-1,18.7c-24,38.1-58.1,61.2-102.9,67c-44.9,5.9-84-7.7-117-38.5
			c-9.2-8.5-16.8-18.4-23.1-29.3c-3.2-5.5-3.5-11.5-0.8-17.4c1-2,0.8-3.2-0.9-4.9c-14.3-14.4-16.6-35.8-5.7-53
			c1-1.6,1.5-2.5-0.5-3.9c-7.9-5.5-10.8-13.2-8.6-22.5C76,92.8,113.1,56.5,172,42.1C181.2,39.8,190.7,39.2,200.3,39.3z M198.2,164.4
			c36.5,0,73.1,0,109.6,0c3.6,0,7.2-0.1,10.8-0.3c4.3-0.2,7-3.5,6.6-7.8c-0.2-1.7-0.5-3.3-0.9-4.9C308,84.2,243.1,41.7,175.8,55.5
			c-53.2,11-86.6,44.5-100.2,97.3c-2.1,8.4,0.6,11.6,9.1,11.6C122.6,164.4,160.4,164.4,198.2,164.4z M199.8,238.9c-27,0-54,0-81,0
			c-7.8,0-15.7-0.1-23.5,0c-4.8,0.1-6.9,3.6-4.9,7.9c0.8,1.7,2,3.3,3.1,4.9c23.7,34.7,56.6,54,98.4,57.1c31.4,2.3,60-6.5,85.3-25.5
			c13-9.7,23.7-21.6,32.1-35.5c2.1-3.5,1.6-6.3-1.1-8c-1.6-1-3.5-0.8-5.3-0.8C268.5,238.9,234.1,238.9,199.8,238.9z M322,199.7
			c-3.7,1.6-6.2,3.9-9.3,5.2c-6.2,2.7-12.8,3.8-19.4,4.3c-11.2,0.7-22.4,0.5-32.9-4.3c-4.5-2.1-8.7-2.2-13.3-0.4
			c-10.9,4.3-21.8,3.9-32.7-0.1c-3-1.1-5.9-2.5-9-3.3c-5.1-1.2-9.2,1.7-13.3,4.1c-14.8,8.9-32.3,8.1-44.8-5.7
			c-2.5-2.8-5.4-3.5-9-2.8c-9.6,2-18.5,6.2-27.8,9c-9.7,2.8-19.4,3.9-29-0.4c-0.9-0.4-1.7-1.7-2.7-0.9c-1.2,0.9-0.7,2.4-0.4,3.6
			c1.5,5.7,4.3,10.7,8.7,14.7c2.4,2.1,4.9,3.1,8.3,3c17.7-0.4,35.5-0.4,53.2-0.5c49-0.4,98-0.2,147.1-0.2c2.8,0,5.6,0,8.5,0.4
			c2.1,0.3,4.3,0.7,6.3-0.7C319.1,218.7,322.6,210.4,322,199.7z M200,177.9c0,0,0,0.1,0,0.1c-34.9,0-69.7,0.1-104.6-0.1
			c-4.6,0-7.9,1.5-10.7,4.8c-3.8,4.4-3.5,6.4,1.5,9.3c1,0.6,2.1,1,3.2,1.4c5.5,2.1,10.9,0.8,16.2-0.8c8.2-2.6,16.3-5.6,24.5-8.1
			c10.8-3.3,20.7-2.8,28.7,6.8c3.5,4.2,8.5,6.1,14.1,5.8c5.8-0.2,10.7-2.7,15.4-5.6c8.3-5.1,17-6.6,26-2.1c10,4.9,20,5.8,30.5,1.4
			c6.1-2.6,12.4-2.3,18.4,0.3c12.5,5.6,25.5,5.6,38.5,2.7c4.7-1,9.1-2.9,12.3-6.7c1.7-2,2.1-3.6-0.1-5.9c-2.7-2.8-5.7-3.4-9.4-3.4
			C269.7,178,234.8,177.9,200,177.9z"/>
		<path class="st1" d="M318.6,164.1c-3.6,0.2-7.2,0.3-10.8,0.3c-36.5,0-73.1,0-109.6,0H84.7c-8.6,0-11.3-3.3-9.1-11.6
			c13.6-52.8,47-86.3,100.2-97.3c67.3-13.9,132.2,28.7,148.5,95.9c0.4,1.6,0.8,3.3,0.9,4.9C325.7,160.6,322.9,163.9,318.6,164.1z"/>
		<path class="st1" d="M199.8,238.9c34.3,0,68.7,0,103,0c1.8,0,3.6-0.2,5.3,0.8c2.8,1.7,3.3,4.5,1.1,8
			c-8.4,13.9-19.1,25.8-32.1,35.5c-25.3,19-53.9,27.8-85.3,25.5c-41.7-3.1-74.7-22.4-98.4-57.1c-1.1-1.6-2.3-3.1-3.1-4.9
			c-2.1-4.3,0.1-7.9,4.9-7.9c7.8-0.1,15.7,0,23.5,0C145.7,238.9,172.7,238.9,199.8,238.9z"/>
		<path class="st2" d="M322,199.7c0.5,10.7-2.9,19-11.5,24.9c-2,1.4-4.3,1-6.3,0.7c-2.8-0.4-5.6-0.4-8.5-0.4c-49,0-98-0.3-147.1,0.2
			c-17.7,0.2-35.5,0.1-53.2,0.5c-3.4,0.1-6-0.9-8.3-3c-4.5-4-7.2-9-8.7-14.7c-0.3-1.2-0.8-2.7,0.4-3.6c1-0.8,1.8,0.5,2.7,0.9
			c9.6,4.3,19.3,3.2,29,0.4c9.4-2.7,18.2-6.9,27.8-9c3.6-0.8,6.5,0,9,2.8c12.5,13.8,30,14.6,44.8,5.7c4-2.4,8.2-5.4,13.3-4.1
			c3.1,0.7,6,2.2,9,3.3c10.9,4,21.8,4.5,32.7,0.1c4.6-1.8,8.8-1.7,13.3,0.4c10.5,4.8,21.6,5.1,32.9,4.3c6.7-0.4,13.2-1.6,19.4-4.3
			C315.9,203.6,318.4,201.3,322,199.7z"/>
		<path class="st3" d="M200,177.9c34.9,0,69.7,0,104.6,0c3.7,0,6.6,0.6,9.4,3.4c2.2,2.3,1.8,3.9,0.1,5.9c-3.2,3.8-7.7,5.7-12.3,6.7
			c-13.1,2.8-26,2.9-38.5-2.7c-6-2.7-12.3-2.9-18.4-0.3c-10.5,4.4-20.4,3.5-30.5-1.4c-9-4.4-17.7-3-26,2.1
			c-4.7,2.9-9.6,5.4-15.4,5.6c-5.7,0.2-10.7-1.7-14.1-5.8c-8-9.5-17.9-10-28.7-6.8c-8.2,2.5-16.3,5.5-24.5,8.1
			c-5.3,1.6-10.7,2.9-16.2,0.8c-1.1-0.4-2.2-0.8-3.2-1.4c-5-2.9-5.2-4.9-1.5-9.3c2.8-3.3,6.1-4.8,10.7-4.8
			c34.9,0.2,69.7,0.1,104.6,0.1C200,178,200,178,200,177.9z"/>
	</g>
</g>
</svg>
